<svg width="500" height="500" viewBox="0 0 500 500" fill="none" xmlns="http://www.w3.org/2000/svg">
<path d="M0 382.4H500V382.65H0V382.4Z" fill="#EBEBEB"/>
<path d="M416.78 398.49H449.9V398.74H416.78V398.49Z" fill="#EBEBEB"/>
<path d="M322.53 401.21H331.22V401.46H322.53V401.21Z" fill="#EBEBEB"/>
<path d="M396.59 389.21H415.78V389.46H396.59V389.21Z" fill="#EBEBEB"/>
<path d="M52.46 390.89H95.65V391.14H52.46V390.89Z" fill="#EBEBEB"/>
<path d="M104.56 390.89H110.89V391.14H104.56V390.89Z" fill="#EBEBEB"/>
<path d="M131.47 395.11H225.15V395.36H131.47V395.11Z" fill="#EBEBEB"/>
<path d="M237.01 337.8H43.92C40.77 337.8 38.21 335.24 38.21 332.09V60.6602C38.21 57.5102 40.77 54.9502 43.92 54.9502H237.02C240.17 54.9502 242.73 57.5102 242.73 60.6602V332.09C242.72 335.24 240.16 337.8 237.01 337.8ZM43.92 55.2002C40.91 55.2002 38.46 57.6502 38.46 60.6602V332.09C38.46 335.1 40.91 337.55 43.92 337.55H237.02C240.03 337.55 242.48 335.1 242.48 332.09V60.6602C242.48 57.6502 240.03 55.2002 237.02 55.2002H43.92Z" fill="#EBEBEB"/>
<path d="M453.31 337.8H260.21C257.06 337.8 254.5 335.24 254.5 332.09V60.6602C254.5 57.5102 257.06 54.9502 260.21 54.9502H453.31C456.46 54.9502 459.02 57.5102 459.02 60.6602V332.09C459.02 335.24 456.46 337.8 453.31 337.8ZM260.21 55.2002C257.2 55.2002 254.75 57.6502 254.75 60.6602V332.09C254.75 335.1 257.2 337.55 260.21 337.55H453.31C456.32 337.55 458.77 335.1 458.77 332.09V60.6602C458.77 57.6502 456.32 55.2002 453.31 55.2002H260.21Z" fill="#EBEBEB"/>
<path d="M92.0303 285.87H218.45V294.79H92.0303V285.87Z" fill="#EBEBEB"/>
<path d="M163.48 285.87H218.45V294.79H163.48V285.87Z" fill="#E0E0E0"/>
<path d="M92.0303 294.79H110.71V382.4H92.0303V294.79Z" fill="#EBEBEB"/>
<path d="M110.71 303.83L92.0303 297.47V294.79H110.71V303.83Z" fill="#E0E0E0"/>
<path d="M199.77 294.79H218.45V382.4H199.77V294.79Z" fill="#E0E0E0"/>
<path d="M163.48 294.79H182.16V382.4H163.48V294.79Z" fill="#EBEBEB"/>
<path d="M182.15 303.83L163.47 297.47V294.79H182.15V303.83Z" fill="#E0E0E0"/>
<path d="M128.32 294.79H147V382.4H128.32V294.79Z" fill="#E0E0E0"/>
<path d="M71 87.1699H230.33V222.84H71V87.1699Z" fill="#EBEBEB"/>
<path d="M232.11 222.83H230.33V87.1602H232.11V222.83Z" fill="#E0E0E0"/>
<path d="M224.33 93.1699V216.84H77V93.1699H224.33Z" fill="#F5F5F5"/>
<path d="M148.89 198.06C157.87 168.03 160.39 123.81 179.54 129.92C198.69 136.02 173.61 201.45 173.61 201.45L148.89 198.06Z" fill="white"/>
<path d="M164.35 199.55C155.19 156.07 157.5 98.34 129.04 99.67C100.58 100.99 129.04 201.44 129.04 201.44L164.35 199.55Z" fill="white"/>
<path d="M184.46 194.67H122.16C119.39 194.67 117.29 196.7 117.17 199.27C115.9 227.97 120.6 257.22 129.35 285.86H177.06C185.81 257.22 190.51 227.97 189.24 199.27C189.13 196.71 187.03 194.67 184.46 194.67Z" fill="#EBEBEB"/>
<path d="M322.69 102.3H326.2V382.4H322.69V102.3Z" fill="#E0E0E0"/>
<path d="M405.18 102.3H408.69V382.4H405.18V102.3Z" fill="#E0E0E0"/>
<path d="M297.8 102.3H301.31V382.4H297.8V102.3Z" fill="#EBEBEB"/>
<path d="M380.29 102.3H383.8V382.4H380.29V102.3Z" fill="#EBEBEB"/>
<path d="M297.8 100.38H408.69V104.21H297.8V100.38Z" fill="#EBEBEB"/>
<path d="M297.8 168.97H408.69V172.8H297.8V168.97Z" fill="#EBEBEB"/>
<path d="M297.8 237.56H408.69V241.39H297.8V237.56Z" fill="#EBEBEB"/>
<path d="M297.8 306.15H408.69V309.98H297.8V306.15Z" fill="#EBEBEB"/>
<path d="M297.8 374.74H408.69V378.57H297.8V374.74Z" fill="#EBEBEB"/>
<path d="M383.8 100.38H408.69V104.21H383.8V100.38Z" fill="#E0E0E0"/>
<path d="M383.8 168.97H408.69V172.8H383.8V168.97Z" fill="#E0E0E0"/>
<path d="M383.8 237.56H408.69V241.39H383.8V237.56Z" fill="#E0E0E0"/>
<path d="M383.8 306.15H408.69V309.98H383.8V306.15Z" fill="#E0E0E0"/>
<path d="M383.8 374.74H408.69V378.57H383.8V374.74Z" fill="#E0E0E0"/>
<path d="M342.54 123.71V118.31H329.21V123.71C329.21 127.24 326.35 130.1 322.82 130.1C319.29 130.1 316.43 132.96 316.43 136.49V168.98H355.31V136.49C355.31 132.96 352.45 130.1 348.92 130.1C345.39 130.1 342.54 127.24 342.54 123.71Z" fill="#F0F0F0"/>
<path d="M311.7 215.26H370.12V237.57H311.7V215.26Z" fill="#F0F0F0"/>
<path d="M380.29 237.56H370.12V215.25H380.29V237.56Z" fill="#E6E6E6"/>
<path d="M380.29 227.64H370.12V225.18H380.29V227.64Z" fill="#EBEBEB"/>
<path d="M311.7 225.18H370.12V227.64H311.7V225.18Z" fill="#F5F5F5"/>
<path d="M308.83 335.3H354.46V374.74H308.83V335.3Z" fill="#F0F0F0"/>
<path d="M362.41 374.74H354.47V335.3H362.41V374.74Z" fill="#E6E6E6"/>
<path d="M362.41 357.19H354.47V352.85H362.41V357.19Z" fill="#EBEBEB"/>
<path d="M308.83 352.85H354.46V357.19H308.83V352.85Z" fill="#F5F5F5"/>
<path d="M362.41 349.8H354.47V348.25H362.41V349.8Z" fill="#EBEBEB"/>
<path d="M308.83 348.25H354.46V349.8H308.83V348.25Z" fill="#F5F5F5"/>
<path d="M311.7 266.05H319.96V306.15H311.7V266.05Z" fill="#F0F0F0"/>
<path d="M311.7 280.34H319.96V291.86H311.7V280.34Z" fill="#FAFAFA"/>
<path d="M348.07 306.15H319.97V266.05H348.07V306.15Z" fill="#E6E6E6"/>
<path d="M323.39 260.87H332.72V306.15H323.39V260.87Z" fill="#EBEBEB"/>
<path d="M323.39 275.26H332.72V282.23H323.39V275.26Z" fill="#FAFAFA"/>
<path d="M323.39 286.9H332.72V293.87H323.39V286.9Z" fill="#FAFAFA"/>
<path d="M364.46 306.15H332.73V260.87H364.46V306.15Z" fill="#E0E0E0"/>
<path d="M338.08 266.05H343.11V306.15H338.08V266.05Z" fill="#F0F0F0"/>
<path d="M338.94 271.13H342.24V301.07H338.94V271.13Z" fill="#FAFAFA"/>
<path d="M360.19 306.15H343.1V266.05H360.19V306.15Z" fill="#E6E6E6"/>
<path d="M350.86 263.94H356.54V306.15H350.86V263.94Z" fill="#EBEBEB"/>
<path d="M350.86 277.36H356.54V283.86H350.86V277.36Z" fill="#FAFAFA"/>
<path d="M350.86 288.21H356.54V294.71H350.86V288.21Z" fill="#FAFAFA"/>
<path d="M375.84 306.15H356.54V263.94H375.84V306.15Z" fill="#E0E0E0"/>
<path d="M336.36 211.61C337.515 212.765 338.886 213.681 340.395 214.306C341.904 214.931 343.521 215.253 345.155 215.253C346.788 215.253 348.406 214.931 349.915 214.306C351.424 213.681 352.795 212.765 353.95 211.61C355.105 210.455 356.021 209.084 356.646 207.575C357.271 206.066 357.593 204.448 357.593 202.815C357.593 201.182 357.271 199.564 356.646 198.055C356.021 196.546 355.105 195.175 353.95 194.02C352.795 192.865 351.424 191.949 349.915 191.324C348.406 190.699 346.788 190.377 345.155 190.377C343.521 190.377 341.904 190.699 340.395 191.324C338.886 191.949 337.515 192.865 336.36 194.02C335.205 195.175 334.289 196.546 333.664 198.055C333.039 199.564 332.717 201.182 332.717 202.815C332.717 204.448 333.039 206.066 333.664 207.575C334.289 209.084 335.205 210.455 336.36 211.61Z" fill="#F5F5F5"/>
<path d="M350.42 208.01C350.601 209.128 351.001 210.198 351.596 211.162C352.191 212.125 352.97 212.961 353.888 213.623C354.806 214.285 355.846 214.76 356.948 215.02C358.05 215.281 359.192 215.321 360.31 215.14C361.427 214.959 362.498 214.559 363.461 213.964C364.424 213.369 365.261 212.59 365.923 211.672C366.585 210.753 367.06 209.713 367.32 208.612C367.58 207.51 367.621 206.368 367.44 205.25C367.259 204.132 366.859 203.061 366.264 202.098C365.669 201.135 364.89 200.299 363.971 199.637C363.053 198.975 362.013 198.5 360.911 198.24C359.81 197.979 358.667 197.939 357.55 198.12C356.432 198.301 355.361 198.701 354.398 199.296C353.435 199.891 352.599 200.67 351.936 201.588C351.274 202.507 350.8 203.546 350.539 204.648C350.279 205.75 350.239 206.892 350.42 208.01Z" fill="#EBEBEB"/>
<path d="M56.1104 416.24C56.1104 419.242 76.538 422.121 112.899 424.244C149.261 426.367 198.578 427.56 250 427.56C301.423 427.56 350.74 426.367 387.101 424.244C423.463 422.121 443.89 419.242 443.89 416.24C443.89 413.238 423.463 410.358 387.101 408.235C350.74 406.113 301.423 404.92 250 404.92C198.578 404.92 149.261 406.113 112.899 408.235C76.538 410.358 56.1104 413.238 56.1104 416.24Z" fill="#F5F5F5"/>
<path d="M254.55 338.69H126.11V405.03C126.11 408.6 129.01 411.5 132.58 411.5H248.08C251.65 411.5 254.55 408.6 254.55 405.03V338.69Z" fill="#407BFF"/>
<path d="M126.11 338.69H216.99L205.81 324.38C204.58 322.81 201.54 321.54 199.01 321.54H117.28C114.75 321.54 113.7 322.81 114.92 324.38L126.11 338.69Z" fill="#407BFF"/>
<path d="M254.55 338.69H163.67L174.85 329.36C176.08 328.34 179.12 327.51 181.65 327.51H263.38C265.91 327.51 266.96 328.34 265.74 329.36L254.55 338.69Z" fill="#407BFF"/>
<path d="M254.55 338.69H163.67V405.03C163.67 408.6 166.57 411.5 170.14 411.5H248.08C251.65 411.5 254.55 408.6 254.55 405.03V338.69Z" fill="white"/>
<path d="M137.39 338.69V384.17L140.53 381.69L142.74 384.17L144.66 381.41L146.62 384.17L149.37 382.09L152.39 384.17V338.69H137.39Z" fill="white"/>
<path d="M157.73 239.48L141.57 225.92" stroke="#407BFF"/>
<path d="M166.09 246.51L161.17 242.37" stroke="#407BFF"/>
<path d="M214.47 274.89L267.75 208.3L196.81 148.74L149.77 202.67L142.81 216.16C141.35 217.84 141.55 220.19 143.28 221.65L207.29 275.39C209.37 277.12 212.73 276.89 214.47 274.89Z" fill="#407BFF"/>
<path d="M177.93 225.78L170.26 238.13L173.34 238.79L174.39 241.66L176.45 241.78L177.39 244.22L179.9 244.96L181.84 248.03L189.51 235.68L177.93 225.78Z" fill="white"/>
<path d="M265.43 206.35L217.65 259.65L237.43 261.11L284.47 207.18L265.43 206.35Z" fill="#407BFF"/>
<path d="M177.78 147.9L130 201.2L149.78 202.66L196.82 148.73L177.78 147.9Z" fill="#407BFF"/>
<path d="M282.01 106.01C282.2 106.66 282.01 107.28 281.59 107.4C281.17 107.52 280.67 107.1 280.48 106.46C280.29 105.81 280.48 105.19 280.9 105.07C281.33 104.94 281.83 105.36 282.01 106.01Z" fill="#263238"/>
<path d="M282.08 107.26C282.08 107.26 281.7 111.42 280.62 113.69C282.08 114.42 283.87 113.36 283.87 113.36L282.08 107.26Z" fill="#ED847E"/>
<path d="M283.33 101.73C283.42 101.68 283.48 101.61 283.52 101.51C283.59 101.3 283.48 101.08 283.28 101.01C281.22 100.28 279.76 101.38 279.7 101.42C279.53 101.55 279.49 101.8 279.63 101.97C279.76 102.14 280.01 102.17 280.18 102.04C280.23 102 281.38 101.16 283.02 101.74C283.12 101.79 283.23 101.78 283.33 101.73Z" fill="#263238"/>
<path d="M304.24 110.28C304.68 115.58 305.99 125.3 309.12 127.52C309.12 127.52 308.37 133.89 297.16 135.54C284.82 137.36 290.36 130.29 290.36 130.29C296.85 127.69 295.94 122.72 294.08 118.2L298.85 112.74C300.63 110.69 304.02 107.57 304.24 110.28Z" fill="#FFC3BD"/>
<path d="M313.15 130.11C314.15 129.2 312.13 125.56 310.92 125.06C307.7 123.71 294.52 125.04 289.57 129.3C288.15 131.55 289.18 133.99 289.18 133.99L313.15 130.11Z" fill="#78A2FF"/>
<path d="M355.09 397.41C354.27 397.66 353.44 397.78 353.01 397.47C352.83 397.34 352.64 397.08 352.74 396.57C352.8 396.3 352.95 396.09 353.2 395.95C354.28 395.32 356.94 396.15 357.06 396.19C357.13 396.21 357.19 396.28 357.2 396.36C357.21 396.44 357.17 396.51 357.11 396.55C356.72 396.77 355.91 397.16 355.09 397.41ZM353.63 396.19C353.55 396.22 353.47 396.25 353.41 396.29C353.26 396.38 353.17 396.5 353.14 396.65C353.06 397.01 353.2 397.11 353.25 397.15C353.73 397.49 355.36 397 356.49 396.44C355.67 396.22 354.35 395.97 353.63 396.19Z" fill="#407BFF"/>
<path d="M357.06 396.57C357.03 396.58 357 396.58 356.96 396.57C356 396.38 353.87 395.12 353.76 394.18C353.74 394.01 353.77 393.69 354.21 393.5C354.49 393.37 354.79 393.37 355.09 393.5C356.25 393.97 357.15 396.22 357.18 396.31C357.21 396.38 357.19 396.45 357.15 396.51C357.13 396.53 357.1 396.55 357.06 396.57ZM354.46 393.83C354.43 393.84 354.4 393.85 354.38 393.86C354.14 393.96 354.16 394.08 354.16 394.14C354.22 394.7 355.64 395.7 356.65 396.08C356.35 395.44 355.69 394.17 354.94 393.87C354.77 393.79 354.61 393.78 354.46 393.83Z" fill="#407BFF"/>
<path d="M296.48 408.15C295.41 408.15 294.37 408 294.03 407.52C293.91 407.35 293.81 407.06 294.05 406.66C294.18 406.43 294.39 406.28 294.68 406.2C296.07 405.82 298.98 407.48 299.11 407.56C299.18 407.6 299.22 407.68 299.21 407.76C299.2 407.84 299.13 407.91 299.05 407.92C298.51 408.02 297.48 408.15 296.48 408.15ZM295.16 406.53C295.02 406.53 294.89 406.54 294.78 406.58C294.6 406.63 294.47 406.72 294.39 406.86C294.25 407.11 294.3 407.23 294.35 407.3C294.74 407.84 296.85 407.85 298.4 407.63C297.63 407.22 296.13 406.53 295.16 406.53Z" fill="#407BFF"/>
<path d="M299 407.92C298.97 407.92 298.95 407.91 298.92 407.9C297.91 407.45 295.92 405.64 296.07 404.7C296.11 404.48 296.26 404.2 296.81 404.15C297.22 404.11 297.58 404.22 297.91 404.49C298.97 405.36 299.2 407.61 299.2 407.7C299.21 407.77 299.18 407.84 299.12 407.88C299.08 407.9 299.04 407.92 299 407.92ZM296.97 404.54C296.93 404.54 296.89 404.54 296.85 404.55C296.5 404.59 296.47 404.73 296.47 404.77C296.38 405.34 297.73 406.75 298.76 407.37C298.65 406.71 298.36 405.37 297.66 404.8C297.44 404.62 297.22 404.54 296.97 404.54Z" fill="#407BFF"/>
<path d="M308.18 407.72H299.84L299.01 388.4H307.35L308.18 407.72Z" fill="#FFC3BD"/>
<path d="M366.83 394.53L359.14 397.18L351.16 378.97L358.85 376.32L366.83 394.53Z" fill="#FFC3BD"/>
<path d="M357.31 395.27L366.27 392.52C366.6 392.42 366.95 392.56 367.12 392.86L370.87 399.47C371.26 400.16 370.89 401.03 370.14 401.25C367 402.16 365.42 402.44 361.48 403.65C359.06 404.39 352.94 406.71 349.51 407.4C346.15 408.08 344.95 404.79 346.29 404.2C352.31 401.55 354.75 398.54 356.18 396.17C356.43 395.73 356.84 395.42 357.31 395.27Z" fill="#263238"/>
<path d="M299.89 406.75H309C309.34 406.75 309.64 406.99 309.71 407.32L311.36 414.73C311.53 415.5 310.95 416.23 310.16 416.21C306.87 416.15 302.13 415.96 298 415.96C293.17 415.96 291.13 416.22 285.47 416.22C282.05 416.22 281.09 412.76 282.53 412.44C289.06 411.01 292.25 410.86 297.89 407.38C298.49 407.03 299.17 406.75 299.89 406.75Z" fill="#263238"/>
<path d="M324.14 132.84C326.57 135.07 328.67 137.3 330.84 139.63C332.97 141.97 335.04 144.37 337 146.94C338.98 149.49 340.85 152.17 342.56 155.18C343.41 156.69 344.22 158.29 344.9 160.12C345.07 160.59 345.24 161.03 345.38 161.55C345.53 162.05 345.68 162.54 345.79 163.11L345.96 163.94L346.08 164.86C346.15 165.3 346.22 166.52 346.08 167.41C345.82 169.29 345.09 170.73 344.36 171.85C343.62 172.96 342.83 173.78 342.06 174.5C340.51 175.92 339 176.93 337.49 177.83C334.48 179.6 331.5 180.87 328.51 182.01C322.52 184.26 316.54 185.83 310.33 187.01L308.58 181C314.01 178.65 319.51 176.11 324.61 173.39C327.15 172.02 329.62 170.56 331.72 169.01C332.76 168.25 333.7 167.43 334.32 166.72C334.63 166.37 334.83 166.04 334.91 165.86C334.98 165.69 334.88 165.71 334.8 166.07C334.73 166.74 334.75 166.22 334.58 165.86C334.53 165.69 334.44 165.46 334.35 165.24C334.28 165.03 334.15 164.78 334.04 164.53C333.57 163.55 332.94 162.45 332.23 161.36C330.79 159.16 329.05 156.94 327.23 154.75C325.39 152.57 323.45 150.4 321.46 148.26C319.51 146.12 317.37 143.99 315.42 142L324.14 132.84Z" fill="#FFC3BD"/>
<path d="M310.87 180.07L302.95 182.45L308.01 190.77C308.01 190.77 312.67 188.85 313.69 184.89L310.87 180.07Z" fill="#FFC3BD"/>
<path d="M299.82 185.4L302.92 192.26L308.01 190.77L302.95 182.45L299.82 185.4Z" fill="#FFC3BD"/>
<path d="M305.7 135.1C304.95 143.09 321.87 155.47 321.87 155.47L338.16 144.32C338.16 144.32 334.81 137.14 326.14 131.57C316.82 125.6 306.64 125.16 305.7 135.1Z" fill="#407BFF"/>
<path d="M305.7 135.1C304.95 143.09 321.87 155.47 321.87 155.47L338.16 144.32C338.16 144.32 334.81 137.14 326.14 131.57C316.82 125.6 306.64 125.16 305.7 135.1Z" fill="#78A2FF"/>
<path d="M278.01 134.46C278.01 134.46 270.69 145.68 288.06 205.86L332.2 199.34C331.58 193.24 324.19 166.63 323.95 137.53C323.9 131.62 318.94 126.93 313.04 127.23C311.75 127.3 310.43 127.39 309.13 127.52C303.45 128.08 295.26 129.11 290.37 130.29C283.91 131.85 278.01 134.46 278.01 134.46Z" fill="#407BFF"/>
<path d="M278.01 134.46C278.01 134.46 270.69 145.68 288.06 205.86L332.2 199.34C331.58 193.24 324.19 166.63 323.95 137.53C323.9 131.62 318.94 126.93 313.04 127.23C311.75 127.3 310.43 127.39 309.13 127.52C303.45 128.08 295.26 129.11 290.37 130.29C283.91 131.85 278.01 134.46 278.01 134.46Z" fill="#78A2FF"/>
<path d="M303.15 98.3197C304.99 106.39 306.48 111.02 303.67 116.27C299.44 124.16 288.59 123.4 284.37 116.04C280.58 109.42 278.2 97.3297 285.04 91.8897C291.77 86.5397 301.31 90.2497 303.15 98.3197Z" fill="#FFC3BD"/>
<path d="M286.94 106.23L283.87 108.11L284.16 97.6102C284.16 97.6102 280.94 97.8302 278.6 96.0002C279.71 94.9402 296.99 88.8902 302.38 89.9402C302.94 89.7002 303.62 88.6602 303.62 88.6602C303.62 88.6602 303.83 89.9702 302.91 90.4702C303.58 90.3402 305.22 90.6601 305.68 91.6301C304.23 91.3201 303.39 91.7602 303.39 91.7602C303.39 91.7602 309.43 92.6702 307.27 100.99C304.88 110.16 305.67 115.43 305.67 115.43C305.67 115.43 301.21 118.87 297.32 118.24C293.19 113.69 287.21 108.21 286.94 106.23Z" fill="#263238"/>
<path d="M281.06 95.17C276.18 95.21 274.43 92.79 273.18 90.79C276.68 90.41 283.97 88.16 289.39 87.79C294.81 87.41 300.72 88.42 298.93 90.75C297.14 93.08 281.06 95.17 281.06 95.17Z" fill="#263238"/>
<path d="M282.13 92.9996C278.16 92.4496 274.22 88.6696 277.22 85.0596C278.33 87.7196 285.82 87.4096 291.14 86.2996C298.11 84.8396 302.99 87.1996 300.51 91.9696C299.16 94.5696 282.13 92.9996 282.13 92.9996Z" fill="#263238"/>
<path d="M291.26 103.84C291.89 105.91 291.66 108.17 290.99 109.84C289.98 112.35 287.77 111.85 286.62 109.67C285.58 107.71 284.86 104.05 286.55 102.24C288.23 100.46 290.54 101.47 291.26 103.84Z" fill="#FFC3BD"/>
<path d="M303.71 203.55C303.71 203.55 310.87 264.5 316.07 288.38C321.76 314.53 349.83 385.86 349.83 385.86L363.87 381.02C363.87 381.02 345.87 327.32 341.1 290.76C337.43 262.67 332.2 199.35 332.2 199.35L303.71 203.55Z" fill="#263238"/>
<path d="M346.25 381.38C346.19 381.4 349.12 387.37 349.12 387.37L365.47 382.06L363.55 377.18L346.25 381.38Z" fill="#407BFF"/>
<path d="M288.05 205.86C288.05 205.86 282.11 263.12 283.02 288.56C283.96 315.02 296.33 396.44 296.33 396.44H310.46C310.46 396.44 307.86 316.57 308.49 290.58C309.18 262.25 319.8 201.18 319.8 201.18L288.05 205.86Z" fill="#263238"/>
<path d="M293.6 390.81C293.54 390.81 294.4 396.68 294.4 396.68H311.59L312.06 391.44L293.6 390.81Z" fill="#407BFF"/>
<path d="M285.32 148.52C283.76 151 282.18 153.23 280.53 155.53C278.9 157.81 277.18 160.03 275.42 162.23C271.87 166.61 268.09 170.85 263.85 174.85C262.73 175.82 261.69 176.83 260.49 177.76L259.61 178.47L259.17 178.82C259.01 178.95 258.94 179.01 258.61 179.26C257.5 180.07 256.4 180.57 255.38 180.93C253.32 181.63 251.54 181.8 249.85 181.87C248.17 181.94 246.6 181.83 245.08 181.66C239.01 180.91 233.67 179.22 228.33 176.93L230.05 170.91C235.23 171.43 240.65 171.87 245.48 171.65C246.68 171.58 247.84 171.46 248.87 171.28C249.89 171.1 250.82 170.81 251.31 170.52C251.56 170.39 251.69 170.26 251.65 170.23C251.59 170.27 251.78 170.1 251.87 170.01L252.2 169.7L252.87 169.07C253.77 168.27 254.63 167.3 255.5 166.42C257.23 164.56 258.94 162.65 260.58 160.61C262.25 158.62 263.86 156.54 265.46 154.45C267.06 152.36 268.61 150.21 270.18 148.08C271.72 145.95 273.26 143.72 274.7 141.64L285.32 148.52Z" fill="#FFC3BD"/>
<path d="M291.12 145.87C294.49 156.86 274.97 169.06 274.97 169.06L262.29 152.9C262.29 152.9 265.81 145.81 272.79 138.21C281.42 128.83 288.56 137.5 291.12 145.87Z" fill="#407BFF"/>
<path d="M291.12 145.87C294.49 156.86 274.97 169.06 274.97 169.06L262.29 152.9C262.29 152.9 265.81 145.81 272.79 138.21C281.42 128.83 288.56 137.5 291.12 145.87Z" fill="#78A2FF"/>
<path d="M232.98 171.33L222.72 169.45L223.8 178.34C223.8 178.34 229.13 181.33 233.01 176.65L232.98 171.33Z" fill="#FFC3BD"/>
<path d="M218.77 171.45L220.99 177.86L223.79 178.33L222.71 169.44L218.77 171.45Z" fill="#FFC3BD"/>
</svg>
